<mxfile host="65bd71144e">
    <diagram id="anjcI6v9qnn2wcEVP-cM" name="Page-1">
        <mxGraphModel dx="-2636" dy="-5148" grid="1" gridSize="10" guides="1" tooltips="1" connect="1" arrows="1" fold="1" page="1" pageScale="1" pageWidth="850" pageHeight="1100" math="0" shadow="0">
            <root>
                <mxCell id="0"/>
                <mxCell id="1" parent="0"/>
                <mxCell id="2" value="&lt;h1&gt;Mobile App Entities&lt;/h1&gt;&lt;p&gt;The only blockchain entities on the app. Aggregate entities. This is the only chain data we should need on the phone to support the wallet.&lt;/p&gt;" style="text;html=1;strokeColor=none;fillColor=none;spacing=5;spacingTop=-20;whiteSpace=wrap;overflow=hidden;rounded=0;" parent="1" vertex="1">
                    <mxGeometry x="4320" y="5520" width="813" height="72" as="geometry"/>
                </mxCell>
                <mxCell id="3" value="&lt;b&gt;Address&lt;/b&gt;" style="swimlane;fontStyle=0;align=center;verticalAlign=top;childLayout=stackLayout;horizontal=1;startSize=27;horizontalStack=0;resizeParent=1;resizeParentMax=0;resizeLast=0;collapsible=0;marginBottom=0;html=1;labelBackgroundColor=none;fontColor=#F0F0F0;strokeColor=#F0F0F0;" parent="1" vertex="1">
                    <mxGeometry x="4260" y="5950.5" width="140" height="127" as="geometry"/>
                </mxCell>
                <mxCell id="4" value="String id" style="text;html=1;strokeColor=none;fillColor=none;align=left;verticalAlign=middle;spacingLeft=4;spacingRight=4;overflow=hidden;rotatable=0;points=[[0,0.5],[1,0.5]];portConstraint=eastwest;labelBackgroundColor=none;fontColor=#F0F0F0;" parent="3" vertex="1">
                    <mxGeometry y="27" width="140" height="20" as="geometry"/>
                </mxCell>
                <mxCell id="5" value="String address" style="text;html=1;strokeColor=none;fillColor=none;align=left;verticalAlign=middle;spacingLeft=4;spacingRight=4;overflow=hidden;rotatable=0;points=[[0,0.5],[1,0.5]];portConstraint=eastwest;labelBackgroundColor=none;fontColor=#F0F0F0;" parent="3" vertex="1">
                    <mxGeometry y="47" width="140" height="20" as="geometry"/>
                </mxCell>
                <mxCell id="6" value="String derivationPath" style="text;html=1;strokeColor=none;fillColor=none;align=left;verticalAlign=middle;spacingLeft=4;spacingRight=4;overflow=hidden;rotatable=0;points=[[0,0.5],[1,0.5]];portConstraint=eastwest;labelBackgroundColor=none;fontColor=#F0F0F0;" parent="3" vertex="1">
                    <mxGeometry y="67" width="140" height="20" as="geometry"/>
                </mxCell>
                <mxCell id="7" value="String priv" style="text;html=1;strokeColor=none;fillColor=none;align=left;verticalAlign=middle;spacingLeft=4;spacingRight=4;overflow=hidden;rotatable=0;points=[[0,0.5],[1,0.5]];portConstraint=eastwest;labelBackgroundColor=none;fontColor=#F0F0F0;" parent="3" vertex="1">
                    <mxGeometry y="87" width="140" height="20" as="geometry"/>
                </mxCell>
                <mxCell id="8" value="String pub" style="text;html=1;strokeColor=none;fillColor=none;align=left;verticalAlign=middle;spacingLeft=4;spacingRight=4;overflow=hidden;rotatable=0;points=[[0,0.5],[1,0.5]];portConstraint=eastwest;labelBackgroundColor=none;fontColor=#F0F0F0;" parent="3" vertex="1">
                    <mxGeometry y="107" width="140" height="20" as="geometry"/>
                </mxCell>
                <mxCell id="9" value="&lt;b&gt;Wallet&lt;/b&gt;&lt;br&gt;" style="swimlane;fontStyle=0;align=center;verticalAlign=top;childLayout=stackLayout;horizontal=1;startSize=27;horizontalStack=0;resizeParent=1;resizeParentMax=0;resizeLast=0;collapsible=0;marginBottom=0;html=1;labelBackgroundColor=none;fontColor=#F0F0F0;strokeColor=#F0F0F0;" parent="1" vertex="1">
                    <mxGeometry x="4403" y="5625" width="152" height="267" as="geometry"/>
                </mxCell>
                <mxCell id="10" value="String id" style="text;html=1;strokeColor=none;fillColor=none;align=left;verticalAlign=middle;spacingLeft=4;spacingRight=4;overflow=hidden;rotatable=0;points=[[0,0.5],[1,0.5]];portConstraint=eastwest;labelBackgroundColor=none;fontColor=#F0F0F0;" parent="9" vertex="1">
                    <mxGeometry y="27" width="152" height="20" as="geometry"/>
                </mxCell>
                <mxCell id="11" value="Enum walletType" style="text;html=1;strokeColor=none;fillColor=none;align=left;verticalAlign=middle;spacingLeft=4;spacingRight=4;overflow=hidden;rotatable=0;points=[[0,0.5],[1,0.5]];portConstraint=eastwest;labelBackgroundColor=none;fontColor=#F0F0F0;" parent="9" vertex="1">
                    <mxGeometry y="47" width="152" height="20" as="geometry"/>
                </mxCell>
                <mxCell id="12" value="String name" style="text;html=1;strokeColor=none;fillColor=none;align=left;verticalAlign=middle;spacingLeft=4;spacingRight=4;overflow=hidden;rotatable=0;points=[[0,0.5],[1,0.5]];portConstraint=eastwest;labelBackgroundColor=none;fontColor=#F0F0F0;" parent="9" vertex="1">
                    <mxGeometry y="67" width="152" height="20" as="geometry"/>
                </mxCell>
                <mxCell id="13" value="String deriveSchema" style="text;html=1;strokeColor=none;fillColor=none;align=left;verticalAlign=middle;spacingLeft=4;spacingRight=4;overflow=hidden;rotatable=0;points=[[0,0.5],[1,0.5]];portConstraint=eastwest;labelBackgroundColor=none;fontColor=#F0F0F0;" parent="9" vertex="1">
                    <mxGeometry y="87" width="152" height="20" as="geometry"/>
                </mxCell>
                <mxCell id="14" value="KeyStore keyStore" style="text;html=1;strokeColor=none;fillColor=none;align=left;verticalAlign=middle;spacingLeft=4;spacingRight=4;overflow=hidden;rotatable=0;points=[[0,0.5],[1,0.5]];portConstraint=eastwest;labelBackgroundColor=none;fontColor=#F0F0F0;" parent="9" vertex="1">
                    <mxGeometry y="107" width="152" height="20" as="geometry"/>
                </mxCell>
                <mxCell id="15" value="List&amp;lt;Holding&amp;gt; holdings" style="text;html=1;strokeColor=none;fillColor=none;align=left;verticalAlign=middle;spacingLeft=4;spacingRight=4;overflow=hidden;rotatable=0;points=[[0,0.5],[1,0.5]];portConstraint=eastwest;labelBackgroundColor=none;fontColor=#F0F0F0;" parent="9" vertex="1">
                    <mxGeometry y="127" width="152" height="20" as="geometry"/>
                </mxCell>
                <mxCell id="16" value="List&amp;lt;Vout&amp;gt; unspents" style="text;html=1;strokeColor=none;fillColor=none;align=left;verticalAlign=middle;spacingLeft=4;spacingRight=4;overflow=hidden;rotatable=0;points=[[0,0.5],[1,0.5]];portConstraint=eastwest;labelBackgroundColor=none;fontColor=#F0F0F0;" parent="9" vertex="1">
                    <mxGeometry y="147" width="152" height="20" as="geometry"/>
                </mxCell>
                <mxCell id="17" value="String changeAddress" style="text;html=1;strokeColor=none;fillColor=none;align=left;verticalAlign=middle;spacingLeft=4;spacingRight=4;overflow=hidden;rotatable=0;points=[[0,0.5],[1,0.5]];portConstraint=eastwest;labelBackgroundColor=none;fontColor=#F0F0F0;" parent="9" vertex="1">
                    <mxGeometry y="167" width="152" height="20" as="geometry"/>
                </mxCell>
                <mxCell id="18" value="String receiveAddress" style="text;html=1;strokeColor=none;fillColor=none;align=left;verticalAlign=middle;spacingLeft=4;spacingRight=4;overflow=hidden;rotatable=0;points=[[0,0.5],[1,0.5]];portConstraint=eastwest;labelBackgroundColor=none;fontColor=#F0F0F0;" parent="9" vertex="1">
                    <mxGeometry y="187" width="152" height="20" as="geometry"/>
                </mxCell>
                <mxCell id="19" value="int changeIndex" style="text;html=1;strokeColor=none;fillColor=none;align=left;verticalAlign=middle;spacingLeft=4;spacingRight=4;overflow=hidden;rotatable=0;points=[[0,0.5],[1,0.5]];portConstraint=eastwest;labelBackgroundColor=none;fontColor=#F0F0F0;" parent="9" vertex="1">
                    <mxGeometry y="207" width="152" height="20" as="geometry"/>
                </mxCell>
                <mxCell id="20" value="int receiveIndex" style="text;html=1;strokeColor=none;fillColor=none;align=left;verticalAlign=middle;spacingLeft=4;spacingRight=4;overflow=hidden;rotatable=0;points=[[0,0.5],[1,0.5]];portConstraint=eastwest;labelBackgroundColor=none;fontColor=#F0F0F0;" parent="9" vertex="1">
                    <mxGeometry y="227" width="152" height="20" as="geometry"/>
                </mxCell>
                <mxCell id="21" value="List&amp;lt;Address&amp;gt; addresses" style="text;html=1;strokeColor=none;fillColor=none;align=left;verticalAlign=middle;spacingLeft=4;spacingRight=4;overflow=hidden;rotatable=0;points=[[0,0.5],[1,0.5]];portConstraint=eastwest;labelBackgroundColor=none;fontColor=#F0F0F0;" parent="9" vertex="1">
                    <mxGeometry y="247" width="152" height="20" as="geometry"/>
                </mxCell>
                <mxCell id="22" value="&lt;b&gt;Vout&lt;br&gt;&lt;/b&gt;" style="swimlane;fontStyle=0;align=center;verticalAlign=top;childLayout=stackLayout;horizontal=1;startSize=27;horizontalStack=0;resizeParent=1;resizeParentMax=0;resizeLast=0;collapsible=0;marginBottom=0;html=1;labelBackgroundColor=none;fontColor=#F0F0F0;strokeColor=#F0F0F0;" parent="1" vertex="1">
                    <mxGeometry x="4618" y="5830.5" width="176" height="247" as="geometry"/>
                </mxCell>
                <mxCell id="23" value="String id" style="text;html=1;strokeColor=none;fillColor=none;align=left;verticalAlign=middle;spacingLeft=4;spacingRight=4;overflow=hidden;rotatable=0;points=[[0,0.5],[1,0.5]];portConstraint=eastwest;labelBackgroundColor=none;fontColor=#F0F0F0;" parent="22" vertex="1">
                    <mxGeometry y="27" width="176" height="20" as="geometry"/>
                </mxCell>
                <mxCell id="24" value="String transactionId" style="text;html=1;strokeColor=none;fillColor=none;align=left;verticalAlign=middle;spacingLeft=4;spacingRight=4;overflow=hidden;rotatable=0;points=[[0,0.5],[1,0.5]];portConstraint=eastwest;labelBackgroundColor=none;fontColor=#F0F0F0;" parent="22" vertex="1">
                    <mxGeometry y="47" width="176" height="20" as="geometry"/>
                </mxCell>
                <mxCell id="25" value="Enum voutType" style="text;html=1;strokeColor=none;fillColor=none;align=left;verticalAlign=middle;spacingLeft=4;spacingRight=4;overflow=hidden;rotatable=0;points=[[0,0.5],[1,0.5]];portConstraint=eastwest;labelBackgroundColor=none;fontColor=#F0F0F0;" parent="22" vertex="1">
                    <mxGeometry y="67" width="176" height="20" as="geometry"/>
                </mxCell>
                <mxCell id="26" value="int position" style="text;html=1;strokeColor=none;fillColor=none;align=left;verticalAlign=middle;spacingLeft=4;spacingRight=4;overflow=hidden;rotatable=0;points=[[0,0.5],[1,0.5]];portConstraint=eastwest;labelBackgroundColor=none;fontColor=#F0F0F0;" parent="22" vertex="1">
                    <mxGeometry y="87" width="176" height="20" as="geometry"/>
                </mxCell>
                <mxCell id="27" value="int sats" style="text;html=1;strokeColor=none;fillColor=none;align=left;verticalAlign=middle;spacingLeft=4;spacingRight=4;overflow=hidden;rotatable=0;points=[[0,0.5],[1,0.5]];portConstraint=eastwest;labelBackgroundColor=none;fontColor=#F0F0F0;" parent="22" vertex="1">
                    <mxGeometry y="107" width="176" height="20" as="geometry"/>
                </mxCell>
                <mxCell id="28" value="String holdingTechnicalName" style="text;html=1;strokeColor=none;fillColor=none;align=left;verticalAlign=middle;spacingLeft=4;spacingRight=4;overflow=hidden;rotatable=0;points=[[0,0.5],[1,0.5]];portConstraint=eastwest;labelBackgroundColor=none;fontColor=#F0F0F0;" parent="22" vertex="1">
                    <mxGeometry y="127" width="176" height="20" as="geometry"/>
                </mxCell>
                <mxCell id="29" value="String lockingScript" style="text;html=1;strokeColor=none;fillColor=none;align=left;verticalAlign=middle;spacingLeft=4;spacingRight=4;overflow=hidden;rotatable=0;points=[[0,0.5],[1,0.5]];portConstraint=eastwest;labelBackgroundColor=none;fontColor=#F0F0F0;" parent="22" vertex="1">
                    <mxGeometry y="147" width="176" height="20" as="geometry"/>
                </mxCell>
                <mxCell id="30" value="String assetMemo" style="text;html=1;strokeColor=none;fillColor=none;align=left;verticalAlign=middle;spacingLeft=4;spacingRight=4;overflow=hidden;rotatable=0;points=[[0,0.5],[1,0.5]];portConstraint=eastwest;labelBackgroundColor=none;fontColor=#F0F0F0;" parent="22" vertex="1">
                    <mxGeometry y="167" width="176" height="20" as="geometry"/>
                </mxCell>
                <mxCell id="31" value="String memo" style="text;html=1;strokeColor=none;fillColor=none;align=left;verticalAlign=middle;spacingLeft=4;spacingRight=4;overflow=hidden;rotatable=0;points=[[0,0.5],[1,0.5]];portConstraint=eastwest;labelBackgroundColor=none;fontColor=#F0F0F0;" parent="22" vertex="1">
                    <mxGeometry y="187" width="176" height="20" as="geometry"/>
                </mxCell>
                <mxCell id="32" value="String consumingTransactionId" style="text;html=1;strokeColor=none;fillColor=none;align=left;verticalAlign=middle;spacingLeft=4;spacingRight=4;overflow=hidden;rotatable=0;points=[[0,0.5],[1,0.5]];portConstraint=eastwest;labelBackgroundColor=none;fontColor=#F0F0F0;" parent="22" vertex="1">
                    <mxGeometry y="207" width="176" height="20" as="geometry"/>
                </mxCell>
                <mxCell id="33" value="List&amp;lt;String&amp;gt; addressIds" style="text;html=1;strokeColor=none;fillColor=none;align=left;verticalAlign=middle;spacingLeft=4;spacingRight=4;overflow=hidden;rotatable=0;points=[[0,0.5],[1,0.5]];portConstraint=eastwest;labelBackgroundColor=none;fontColor=#F0F0F0;" parent="22" vertex="1">
                    <mxGeometry y="227" width="176" height="20" as="geometry"/>
                </mxCell>
                <mxCell id="34" value="&lt;b&gt;TransactionRecordFull&lt;/b&gt;" style="swimlane;fontStyle=0;align=center;verticalAlign=top;childLayout=stackLayout;horizontal=1;startSize=27;horizontalStack=0;resizeParent=1;resizeParentMax=0;resizeLast=0;collapsible=0;marginBottom=0;html=1;labelBackgroundColor=none;fontColor=#F0F0F0;strokeColor=#F0F0F0;" parent="1" vertex="1">
                    <mxGeometry x="4838" y="5698" width="183" height="127" as="geometry"/>
                </mxCell>
                <mxCell id="35" value="String id" style="text;html=1;strokeColor=none;fillColor=none;align=left;verticalAlign=middle;spacingLeft=4;spacingRight=4;overflow=hidden;rotatable=0;points=[[0,0.5],[1,0.5]];portConstraint=eastwest;labelBackgroundColor=none;fontColor=#F0F0F0;" parent="34" vertex="1">
                    <mxGeometry y="27" width="183" height="20" as="geometry"/>
                </mxCell>
                <mxCell id="36" value="int height" style="text;html=1;strokeColor=none;fillColor=none;align=left;verticalAlign=middle;spacingLeft=4;spacingRight=4;overflow=hidden;rotatable=0;points=[[0,0.5],[1,0.5]];portConstraint=eastwest;labelBackgroundColor=none;fontColor=#F0F0F0;" parent="34" vertex="1">
                    <mxGeometry y="47" width="183" height="20" as="geometry"/>
                </mxCell>
                <mxCell id="37" value="enum transactionType" style="text;html=1;strokeColor=none;fillColor=none;align=left;verticalAlign=middle;spacingLeft=4;spacingRight=4;overflow=hidden;rotatable=0;points=[[0,0.5],[1,0.5]];portConstraint=eastwest;labelBackgroundColor=none;fontColor=#F0F0F0;" parent="34" vertex="1">
                    <mxGeometry y="67" width="183" height="20" as="geometry"/>
                </mxCell>
                <mxCell id="38" value="double fee" style="text;html=1;strokeColor=none;fillColor=none;align=left;verticalAlign=middle;spacingLeft=4;spacingRight=4;overflow=hidden;rotatable=0;points=[[0,0.5],[1,0.5]];portConstraint=eastwest;labelBackgroundColor=none;fontColor=#F0F0F0;" parent="34" vertex="1">
                    <mxGeometry y="87" width="183" height="20" as="geometry"/>
                </mxCell>
                <mxCell id="39" value="List&amp;lt;Holding&amp;gt; holdings" style="text;html=1;strokeColor=none;fillColor=none;align=left;verticalAlign=middle;spacingLeft=4;spacingRight=4;overflow=hidden;rotatable=0;points=[[0,0.5],[1,0.5]];portConstraint=eastwest;labelBackgroundColor=none;fontColor=#F0F0F0;" parent="34" vertex="1">
                    <mxGeometry y="107" width="183" height="20" as="geometry"/>
                </mxCell>
                <mxCell id="40" value="&lt;b&gt;Holding&lt;/b&gt;" style="swimlane;fontStyle=0;align=center;verticalAlign=top;childLayout=stackLayout;horizontal=1;startSize=27;horizontalStack=0;resizeParent=1;resizeParentMax=0;resizeLast=0;collapsible=0;marginBottom=0;html=1;labelBackgroundColor=none;fontColor=#F0F0F0;strokeColor=#F0F0F0;" parent="1" vertex="1">
                    <mxGeometry x="4638.5" y="5625" width="140" height="107" as="geometry"/>
                </mxCell>
                <mxCell id="66" value="FullName fullName (id)" style="text;html=1;strokeColor=none;fillColor=none;align=left;verticalAlign=middle;spacingLeft=4;spacingRight=4;overflow=hidden;rotatable=0;points=[[0,0.5],[1,0.5]];portConstraint=eastwest;labelBackgroundColor=none;fontColor=#F0F0F0;" vertex="1" parent="40">
                    <mxGeometry y="27" width="140" height="20" as="geometry"/>
                </mxCell>
                <mxCell id="67" value="Enum assetType" style="text;html=1;strokeColor=none;fillColor=none;align=left;verticalAlign=middle;spacingLeft=4;spacingRight=4;overflow=hidden;rotatable=0;points=[[0,0.5],[1,0.5]];portConstraint=eastwest;labelBackgroundColor=none;fontColor=#F0F0F0;" vertex="1" parent="40">
                    <mxGeometry y="47" width="140" height="20" as="geometry"/>
                </mxCell>
                <mxCell id="68" value="Amount amount" style="text;html=1;strokeColor=none;fillColor=none;align=left;verticalAlign=middle;spacingLeft=4;spacingRight=4;overflow=hidden;rotatable=0;points=[[0,0.5],[1,0.5]];portConstraint=eastwest;labelBackgroundColor=none;fontColor=#F0F0F0;" vertex="1" parent="40">
                    <mxGeometry y="67" width="140" height="20" as="geometry"/>
                </mxCell>
                <mxCell id="69" value="Name name" style="text;html=1;strokeColor=none;fillColor=none;align=left;verticalAlign=middle;spacingLeft=4;spacingRight=4;overflow=hidden;rotatable=0;points=[[0,0.5],[1,0.5]];portConstraint=eastwest;labelBackgroundColor=none;fontColor=#F0F0F0;" vertex="1" parent="40">
                    <mxGeometry y="87" width="140" height="20" as="geometry"/>
                </mxCell>
                <mxCell id="47" value="by &lt;br&gt;fullName" style="edgeStyle=orthogonalEdgeStyle;curved=1;html=1;labelBackgroundColor=default;fontColor=#F0F0F0;endArrow=classic;endFill=1;strokeColor=#F0F0F0;exitX=1;exitY=0.5;exitDx=0;exitDy=0;entryX=0;entryY=0.5;entryDx=0;entryDy=0;" parent="1" source="15" target="66" edge="1">
                    <mxGeometry relative="1" as="geometry">
                        <mxPoint x="4596" y="5650" as="targetPoint"/>
                        <Array as="points">
                            <mxPoint x="4596" y="5762"/>
                            <mxPoint x="4596" y="5662"/>
                        </Array>
                    </mxGeometry>
                </mxCell>
                <mxCell id="48" value="needs priv&lt;br&gt;to make tx" style="edgeStyle=orthogonalEdgeStyle;curved=1;html=1;entryX=1;entryY=0.5;entryDx=0;entryDy=0;labelBackgroundColor=default;fontColor=#F0F0F0;endArrow=classic;endFill=1;strokeColor=#F0F0F0;" parent="1" source="33" target="7" edge="1">
                    <mxGeometry relative="1" as="geometry"/>
                </mxCell>
                <mxCell id="49" value="summed" style="edgeStyle=orthogonalEdgeStyle;curved=1;html=1;entryX=1.004;entryY=0.091;entryDx=0;entryDy=0;labelBackgroundColor=default;fontColor=#F0F0F0;endArrow=classic;endFill=1;strokeColor=#F0F0F0;entryPerimeter=0;" parent="1" source="39" target="40" edge="1">
                    <mxGeometry relative="1" as="geometry"/>
                </mxCell>
                <mxCell id="50" style="edgeStyle=orthogonalEdgeStyle;curved=1;html=1;labelBackgroundColor=default;fontColor=#F0F0F0;endArrow=classic;endFill=1;strokeColor=#F0F0F0;" parent="1" source="16" target="22" edge="1">
                    <mxGeometry relative="1" as="geometry">
                        <mxPoint x="4587" y="5883" as="targetPoint"/>
                    </mxGeometry>
                </mxCell>
                <mxCell id="51" value="must derive on phone" style="edgeStyle=orthogonalEdgeStyle;curved=1;html=1;entryX=0.5;entryY=0;entryDx=0;entryDy=0;labelBackgroundColor=default;fontColor=#F0F0F0;endArrow=classic;endFill=1;strokeColor=#F0F0F0;" parent="1" source="21" target="3" edge="1">
                    <mxGeometry x="0.2464" relative="1" as="geometry">
                        <mxPoint as="offset"/>
                    </mxGeometry>
                </mxCell>
                <mxCell id="52" style="edgeStyle=orthogonalEdgeStyle;curved=1;html=1;entryX=0;entryY=0.5;entryDx=0;entryDy=0;labelBackgroundColor=default;fontColor=#F0F0F0;endArrow=classic;endFill=1;strokeColor=#F0F0F0;" parent="1" source="58" target="20" edge="1">
                    <mxGeometry relative="1" as="geometry"/>
                </mxCell>
                <mxCell id="53" style="edgeStyle=orthogonalEdgeStyle;curved=1;html=1;entryX=0;entryY=0.5;entryDx=0;entryDy=0;labelBackgroundColor=default;fontColor=#F0F0F0;endArrow=classic;endFill=1;strokeColor=#F0F0F0;" parent="1" source="58" target="19" edge="1">
                    <mxGeometry relative="1" as="geometry"/>
                </mxCell>
                <mxCell id="54" style="edgeStyle=orthogonalEdgeStyle;curved=1;html=1;entryX=0;entryY=0.5;entryDx=0;entryDy=0;labelBackgroundColor=default;fontColor=#F0F0F0;endArrow=classic;endFill=1;strokeColor=#F0F0F0;" parent="1" source="58" target="18" edge="1">
                    <mxGeometry relative="1" as="geometry"/>
                </mxCell>
                <mxCell id="55" style="edgeStyle=orthogonalEdgeStyle;curved=1;html=1;entryX=0;entryY=0.5;entryDx=0;entryDy=0;labelBackgroundColor=default;fontColor=#F0F0F0;endArrow=classic;endFill=1;strokeColor=#F0F0F0;" parent="1" source="58" target="17" edge="1">
                    <mxGeometry relative="1" as="geometry"/>
                </mxCell>
                <mxCell id="56" style="edgeStyle=orthogonalEdgeStyle;curved=1;html=1;labelBackgroundColor=default;fontColor=#F0F0F0;endArrow=classic;endFill=1;strokeColor=#F0F0F0;" parent="1" source="58" target="15" edge="1">
                    <mxGeometry relative="1" as="geometry"/>
                </mxCell>
                <mxCell id="57" style="edgeStyle=orthogonalEdgeStyle;curved=1;html=1;entryX=0;entryY=0.5;entryDx=0;entryDy=0;labelBackgroundColor=default;fontColor=#F0F0F0;endArrow=classic;endFill=1;strokeColor=#F0F0F0;" parent="1" source="58" target="16" edge="1">
                    <mxGeometry relative="1" as="geometry"/>
                </mxCell>
                <mxCell id="58" value="MT" style="shape=cylinder3;whiteSpace=wrap;html=1;boundedLbl=1;backgroundOutline=1;size=15;labelBackgroundColor=none;fontColor=#F0F0F0;strokeColor=#F0F0F0;" parent="1" vertex="1">
                    <mxGeometry x="4263" y="5670.5" width="60" height="80" as="geometry"/>
                </mxCell>
                <mxCell id="59" value="all transactions" style="edgeStyle=orthogonalEdgeStyle;curved=1;html=1;entryX=0.25;entryY=0;entryDx=0;entryDy=0;labelBackgroundColor=default;fontColor=#F0F0F0;endArrow=classic;endFill=1;strokeColor=#F0F0F0;exitX=0;exitY=0;exitDx=0;exitDy=27.5;exitPerimeter=0;" parent="1" source="62" target="34" edge="1">
                    <mxGeometry x="-0.4703" relative="1" as="geometry">
                        <mxPoint as="offset"/>
                    </mxGeometry>
                </mxCell>
                <mxCell id="60" style="edgeStyle=orthogonalEdgeStyle;curved=1;html=1;labelBackgroundColor=default;fontColor=#F0F0F0;endArrow=classic;endFill=1;strokeColor=#F0F0F0;" parent="1" source="62" target="39" edge="1">
                    <mxGeometry relative="1" as="geometry"/>
                </mxCell>
                <mxCell id="61" value="by asset" style="edgeStyle=orthogonalEdgeStyle;curved=1;html=1;entryX=0.75;entryY=0;entryDx=0;entryDy=0;labelBackgroundColor=default;fontColor=#F0F0F0;endArrow=classic;endFill=1;strokeColor=#F0F0F0;exitX=0;exitY=0;exitDx=0;exitDy=52.5;exitPerimeter=0;" parent="1" source="62" target="34" edge="1">
                    <mxGeometry relative="1" as="geometry"/>
                </mxCell>
                <mxCell id="62" value="MT" style="shape=cylinder3;whiteSpace=wrap;html=1;boundedLbl=1;backgroundOutline=1;size=15;labelBackgroundColor=none;fontColor=#F0F0F0;strokeColor=#F0F0F0;" parent="1" vertex="1">
                    <mxGeometry x="5130" y="5609" width="60" height="80" as="geometry"/>
                </mxCell>
                <mxCell id="63" value="unspents" style="edgeStyle=orthogonalEdgeStyle;curved=1;html=1;entryX=1.018;entryY=0.059;entryDx=0;entryDy=0;entryPerimeter=0;labelBackgroundColor=default;fontColor=#F0F0F0;endArrow=classic;endFill=1;strokeColor=#F0F0F0;" parent="1" source="65" target="22" edge="1">
                    <mxGeometry relative="1" as="geometry"/>
                </mxCell>
                <mxCell id="64" style="edgeStyle=orthogonalEdgeStyle;curved=1;html=1;entryX=1;entryY=0.5;entryDx=0;entryDy=0;labelBackgroundColor=default;fontColor=#F0F0F0;endArrow=classic;endFill=1;strokeColor=#F0F0F0;" parent="1" source="65" target="33" edge="1">
                    <mxGeometry relative="1" as="geometry"/>
                </mxCell>
                <mxCell id="65" value="MT" style="shape=cylinder3;whiteSpace=wrap;html=1;boundedLbl=1;backgroundOutline=1;size=15;labelBackgroundColor=none;fontColor=#F0F0F0;strokeColor=#F0F0F0;" parent="1" vertex="1">
                    <mxGeometry x="4880" y="5914" width="60" height="80" as="geometry"/>
                </mxCell>
            </root>
        </mxGraphModel>
    </diagram>
</mxfile>